<svg xmlns="http://www.w3.org/2000/svg" width="42" height="42" viewBox="0 0 42 42"><defs><style>.a{fill:#fff;}</style></defs><g transform="translate(0 -0.001)"><g transform="translate(0 0.001)"><g transform="translate(0 0)"><path class="a" d="M41.729,25.654l-.947-.855a5.117,5.117,0,0,1,0-7.6l.947-.855a.82.82,0,0,0,.208-.923l-2.193-5.287a.819.819,0,0,0-.8-.5L37.67,9.7A5.113,5.113,0,0,1,32.3,4.331l.065-1.275a.82.82,0,0,0-.5-.8L26.576.064a.82.82,0,0,0-.923.208L24.8,1.22A5.123,5.123,0,0,1,21,2.906,5.121,5.121,0,0,1,17.2,1.22L16.347.272a.82.82,0,0,0-.923-.208L10.137,2.257a.82.82,0,0,0-.5.8L9.7,4.331A5.113,5.113,0,0,1,4.33,9.7L3.055,9.633a.821.821,0,0,0-.8.5L.062,15.425a.821.821,0,0,0,.208.923l.948.856A5.123,5.123,0,0,1,2.905,21a5.121,5.121,0,0,1-1.687,3.8l-.948.856a.82.82,0,0,0-.208.923l2.193,5.287a.822.822,0,0,0,.8.5L4.33,32.3A5.113,5.113,0,0,1,9.7,37.671l-.065,1.275a.82.82,0,0,0,.5.8l5.287,2.193a.82.82,0,0,0,.923-.208l.855-.947a5.117,5.117,0,0,1,7.6,0l.855.947a.82.82,0,0,0,.923.208l5.287-2.193a.82.82,0,0,0,.5-.8L32.3,37.671A5.113,5.113,0,0,1,37.67,32.3l1.275.065a.822.822,0,0,0,.8-.5l2.193-5.287A.82.82,0,0,0,41.729,25.654ZM38.451,30.7l-.7-.036a6.753,6.753,0,0,0-7.089,7.089l.036.7L26.482,40.2l-.467-.517a6.757,6.757,0,0,0-10.031,0l-.467.517L11.3,38.452l.036-.7a6.754,6.754,0,0,0-7.089-7.089l-.7.036L1.8,26.483l.518-.468A6.766,6.766,0,0,0,4.546,21a6.765,6.765,0,0,0-2.228-5.013L1.8,15.519,3.549,11.3l.7.036a6.753,6.753,0,0,0,7.089-7.089l-.036-.7L15.518,1.8l.468.518A6.766,6.766,0,0,0,21,4.547a6.764,6.764,0,0,0,5.013-2.228l.468-.518L30.7,3.55l-.036.7a6.753,6.753,0,0,0,7.089,7.089l.7-.036L40.2,15.519l-.517.467a6.757,6.757,0,0,0,0,10.031l.517.467Z" transform="translate(0 -0.001)"/></g></g><g transform="translate(12.463 15.409)"><path class="a" d="M157.934,197.266h-4.366V196.2a2.011,2.011,0,0,1,2.008-2.008,3.178,3.178,0,1,0,0-6.355h-2.829a.82.82,0,0,0,0,1.641h2.829a1.537,1.537,0,1,1,0,3.074,3.653,3.653,0,0,0-3.649,3.649v1.886a.82.82,0,0,0,.82.82h5.186a.82.82,0,0,0,0-1.641Z" transform="translate(-151.928 -187.837)"/></g><g transform="translate(21.827 14.995)"><path class="a" d="M272.087,182.782a.82.82,0,0,0-.82.82v4.366h-3.545V183.6a.82.82,0,0,0-1.641,0v5.186a.82.82,0,0,0,.82.82h4.366v3.837a.82.82,0,0,0,1.641,0V183.6A.82.82,0,0,0,272.087,182.782Z" transform="translate(-266.081 -182.782)"/></g><g transform="translate(20.179 13.796)"><path class="a" d="M259.012,168.586a.82.82,0,1,0-1.433.8,12.351,12.351,0,0,1-2.054,14.686,12.223,12.223,0,0,1-8.7,3.6h-.007a.82.82,0,0,0,0,1.641h.007a13.947,13.947,0,0,0,13.824-12.108A14.044,14.044,0,0,0,259.012,168.586Z" transform="translate(-245.997 -168.165)"/></g><g transform="translate(29.467 10.9)"><path class="a" d="M360.615,133.1a.82.82,0,0,0-1.16,1.16l.006.006a.82.82,0,0,0,1.154-1.166Z" transform="translate(-359.214 -132.863)"/></g><g transform="translate(7.063 7.056)"><path class="a" d="M100.05,86h-.007A13.947,13.947,0,0,0,86.218,98.109a14.044,14.044,0,0,0,1.637,8.621.82.82,0,1,0,1.433-.8,12.351,12.351,0,0,1,2.054-14.686,12.223,12.223,0,0,1,8.7-3.6h.007a.82.82,0,0,0,0-1.641Z" transform="translate(-86.099 -86.001)"/></g><g transform="translate(10.904 29.459)"><path class="a" d="M134.333,359.355l-.006-.006a.815.815,0,1,0,.006.006Z" transform="translate(-132.932 -359.112)"/></g></g></svg>