<svg xmlns="http://www.w3.org/2000/svg" width="24" height="24" viewBox="0 0 24 24">
  <g id="Group_3392" data-name="Group 3392" transform="translate(-588 -308)">
    <g id="Group_3390" data-name="Group 3390" transform="translate(-821 -220)">
      <path id="Path_2676" data-name="Path 2676" d="M1418,539h-2v2h2Zm4,0h-2v2h2Zm4,0h-2v2h2Zm2-7h-1v-2h-2v2h-8v-2h-2v2h-1a1.991,1.991,0,0,0-1.99,2l-.01,14a2,2,0,0,0,2,2h14a2.006,2.006,0,0,0,2-2V534A2.006,2.006,0,0,0,1428,532Zm0,16h-14V537h14Z" fill="#cad2dc"/>
    </g>
    <rect id="Rectangle_3226" data-name="Rectangle 3226" width="24" height="24" transform="translate(588 308)" fill="none"/>
  </g>
</svg>
