<svg xmlns="http://www.w3.org/2000/svg" width="148.584" height="22" viewBox="0 0 148.584 22">
  <g id="Group_3478" data-name="Group 3478" transform="translate(6451 -3772.003)">
    <g id="Group_2" data-name="Group 2" transform="translate(-6451 3772.003)">
      <g id="Group_1" data-name="Group 1" transform="translate(5.574 6.012)">
        <rect id="Rectangle_1" data-name="Rectangle 1" width="15.53" height="3.385" transform="translate(0 13.45) rotate(-60.001)" fill="#ec6608"/>
      </g>
      <path id="Path_1" data-name="Path 1" d="M649.03,532.923H638.283a1.692,1.692,0,0,1-1.465-2.538l5.862-10.154a1.692,1.692,0,0,1,2.931,0l7.328,12.692h0l1.954,3.385H658.8l-10.259-17.769a5.077,5.077,0,0,0-8.793,0l-5.862,10.154a5.077,5.077,0,0,0,4.4,7.615h12.7Z" transform="translate(-633.198 -514.308)" fill="#003d7c"/>
      <path id="Path_2" data-name="Path 2" d="M696.707,510H692.8l12.7,22h3.908Z" transform="translate(-675.988 -510)" fill="#ec6608"/>
    </g>
    <g id="Group_6" data-name="Group 6" transform="translate(-6412.923 3776.628)">
      <g id="Group_3" data-name="Group 3" transform="translate(0 0.001)">
        <path id="Path_3" data-name="Path 3" d="M775.1,540.831a19.27,19.27,0,0,1-2.372-.144,7.11,7.11,0,0,1,0-14.142,19.679,19.679,0,0,1,4.744,0,7.126,7.126,0,0,1,5.4,3.513l-2.928,1.7a3.733,3.733,0,0,0-2.839-1.845l-.039,0a16.321,16.321,0,0,0-3.939,0l-.039,0a3.726,3.726,0,0,0,0,7.412l.04,0a16.319,16.319,0,0,0,3.938,0l.04,0a3.734,3.734,0,0,0,2.839-1.845l2.928,1.7a7.127,7.127,0,0,1-5.4,3.514A19.271,19.271,0,0,1,775.1,540.831Z" transform="translate(-766.368 -526.402)" fill="#003d7c"/>
      </g>
      <g id="Group_4" data-name="Group 4" transform="translate(56.072 0.001)">
        <path id="Path_4" data-name="Path 4" d="M973.906,540.831a19.27,19.27,0,0,1-2.372-.144,7.11,7.11,0,0,1,0-14.142,19.676,19.676,0,0,1,4.744,0,7.125,7.125,0,0,1,5.4,3.514l-2.928,1.7a3.732,3.732,0,0,0-2.839-1.845l-.039,0a16.321,16.321,0,0,0-3.939,0l-.039,0a3.726,3.726,0,0,0,0,7.412l.04,0a16.32,16.32,0,0,0,3.939,0l.04,0a3.732,3.732,0,0,0,2.839-1.845l2.928,1.7a7.126,7.126,0,0,1-5.4,3.514A19.272,19.272,0,0,1,973.906,540.831Z" transform="translate(-965.171 -526.402)" fill="#003d7c"/>
      </g>
      <g id="Group_5" data-name="Group 5" transform="translate(93.996 0.001)">
        <path id="Path_5" data-name="Path 5" d="M1108.362,540.831a19.264,19.264,0,0,1-2.372-.144,7.11,7.11,0,0,1,0-14.142,19.677,19.677,0,0,1,4.744,0,7.125,7.125,0,0,1,5.4,3.514l-2.928,1.7a3.732,3.732,0,0,0-2.839-1.845l-.039,0a16.285,16.285,0,0,0-3.939,0l-.039,0a3.726,3.726,0,0,0,0,7.412l.039,0a16.321,16.321,0,0,0,3.939,0l.04,0a3.732,3.732,0,0,0,2.839-1.845l2.928,1.7a7.127,7.127,0,0,1-5.4,3.514A19.278,19.278,0,0,1,1108.362,540.831Z" transform="translate(-1099.627 -526.402)" fill="#003d7c"/>
      </g>
      <path id="Path_6" data-name="Path 6" d="M1042.4,526.545a19.713,19.713,0,0,0-4.744,0,7.125,7.125,0,0,0-5.4,3.514l2.928,1.7a3.733,3.733,0,0,1,2.839-1.845l.04,0a16.3,16.3,0,0,1,3.939,0l.039,0a3.705,3.705,0,0,1,2.938,2.013h-6.112v3.385h6.112a3.7,3.7,0,0,1-2.938,2.014l-.04,0a16.314,16.314,0,0,1-3.939,0l-.04,0a3.732,3.732,0,0,1-2.839-1.845l-2.928,1.7a7.126,7.126,0,0,0,5.4,3.514,19.631,19.631,0,0,0,4.745,0,7.11,7.11,0,0,0,0-14.142Z" transform="translate(-957.256 -526.401)" fill="#003d7c"/>
      <path id="Path_7" data-name="Path 7" d="M914.808,541.514h4.079l-4.556-6.772,4.547-6.772H914.8l-3.411,5.08h-5.262v-5.08h-3.385v13.544h3.385v-5.08h5.261Z" transform="translate(-864.28 -527.527)" fill="#003d7c"/>
      <path id="Path_8" data-name="Path 8" d="M844.965,540.388h3.484l-2.361-9.688c-.68-2.854-2.8-4.3-6.307-4.3-4.349,0-5.829,2.335-6.305,4.292l-2.362,9.7H834.6l.446-1.831h9.476Zm-9.1-5.215.9-3.681c.21-.864.616-1.708,3.016-1.708s2.8.8,3.017,1.709l.9,3.68Z" transform="translate(-812.852 -526.399)" fill="#003d7c"/>
    </g>
  </g>
</svg>
