<svg xmlns="http://www.w3.org/2000/svg" width="175.828" height="38.19" viewBox="0 0 175.828 38.19">
  <g id="Group_3506" data-name="Group 3506" transform="translate(0 -2.003)">
    <path id="Path_2646" data-name="Path 2646" d="M7.1,5.984A3.023,3.023,0,0,0,4.294,4.5,2.87,2.87,0,0,0,1.2,7.406a2.854,2.854,0,0,0,3.094,2.9A3.023,3.023,0,0,0,7.1,8.828l-.971-.561A2.062,2.062,0,0,1,4.274,9.2,1.724,1.724,0,0,1,2.442,7.406,1.7,1.7,0,0,1,4.274,5.614a2.062,2.062,0,0,1,1.852.931ZM8.179,4.632V5.754h2.253V10.17h1.252V5.754h2.253V4.632Zm7.059,0V10.17H16.49V8.938H18.5a2.113,2.113,0,0,0,2.283-2.133A2.144,2.144,0,0,0,18.5,4.632ZM16.49,5.774h1.963a.991.991,0,0,1,1.081,1.031.962.962,0,0,1-1.081.991H16.49Zm6.819,1.632a1.853,1.853,0,0,1,3.7,0,1.853,1.853,0,0,1-3.7,0Zm4.956,0a2.941,2.941,0,0,0-3.1-2.9,2.91,2.91,0,1,0,0,5.808A2.941,2.941,0,0,0,28.265,7.406Zm1.422-2.774V10.17h1.222l3.284-3.825V10.17h1.242V4.632H34.223L30.929,8.477V4.632ZM33.572,2.74a1.665,1.665,0,0,1-2.143,0l-.6.661a2.369,2.369,0,0,0,3.344,0Zm3.364,1.892V10.17h1.212V6.295h.06l1.8,3.875h1.051l1.872-3.875h.06V10.17h1.232V4.632h-1.6L40.6,8.648h-.05L38.609,4.632ZM48.722,5.744h.431l1,2.493H47.69Zm-.781-1.111L45.527,10.17h1.342l.36-.841h3.414l.36.841h1.322L49.973,4.632Zm4.586,0V5.754h2.253V10.17h1.252V5.754h2.253V4.632Zm7.059,0V10.17h5.167V9.018H60.837v-1.1h3.394V6.785H60.837V5.764h3.775V4.632Zm6.6,0V10.17h1.252V8.938h2.013a2.113,2.113,0,0,0,2.283-2.133,2.144,2.144,0,0,0-2.283-2.173Zm1.252,1.141H69.4A.991.991,0,0,1,70.48,6.805.962.962,0,0,1,69.4,7.8H67.436Zm5.647-1.141V10.17H74.3l3.284-3.825V10.17h1.242V4.632H77.619L74.325,8.477V4.632ZM83.327,5.744h.431l1,2.493H82.3Zm-.781-1.111L80.132,10.17h1.342l.36-.841h3.414l.36.841h1.322L84.578,4.632Zm7.139,0L88.944,8.6a.492.492,0,0,1-.541.431h-.6V10.17h.661a1.563,1.563,0,0,0,1.7-1.412l.561-3h2.123V10.17H94.1V4.632Zm11.865,0V10.17H102.8V4.632Zm-5.948,0V10.17h3.164A2.144,2.144,0,0,0,101.05,8a2.09,2.09,0,0,0-2.283-2.1H96.854V4.632Zm1.252,2.373h1.822c.741,0,1.121.31,1.121.991s-.38,1.031-1.121,1.031H96.854Z" transform="translate(44.926 29.882)" fill="#ec6608"/>
    <g id="Group_2" data-name="Group 2" transform="translate(0 2.003)">
      <g id="Group_1" data-name="Group 1" transform="translate(6.597 7.114)">
        <rect id="Rectangle_1" data-name="Rectangle 1" width="18.378" height="4.005" transform="translate(0 15.916) rotate(-60.001)" fill="#ec6608"/>
      </g>
      <path id="Path_1" data-name="Path 1" d="M651.933,536.026H639.215a2,2,0,0,1-1.734-3l6.937-12.016a2,2,0,0,1,3.469,0l8.672,15.019h0l2.312,4.005H663.5L651.356,519a6.008,6.008,0,0,0-10.406,0l-6.937,12.016a6.008,6.008,0,0,0,5.2,9.012h15.031Z" transform="translate(-633.198 -513.997)" fill="#003d7c"/>
      <path id="Path_2" data-name="Path 2" d="M697.424,510H692.8l15.031,26.034h4.625Z" transform="translate(-672.906 -510)" fill="#ec6608"/>
    </g>
    <g id="Group_6" data-name="Group 6" transform="translate(45.058 7.476)">
      <g id="Group_3" data-name="Group 3" transform="translate(0 0.001)">
        <path id="Path_3" data-name="Path 3" d="M776.705,543.477a22.807,22.807,0,0,1-2.807-.17,8.414,8.414,0,0,1,0-16.735,23.289,23.289,0,0,1,5.614,0,8.433,8.433,0,0,1,6.4,4.158l-3.465,2.008a4.418,4.418,0,0,0-3.36-2.184l-.046-.005a19.313,19.313,0,0,0-4.662,0l-.046.005a4.409,4.409,0,0,0,0,8.771l.047.005a19.309,19.309,0,0,0,4.661,0l.047-.005a4.418,4.418,0,0,0,3.359-2.184l3.465,2.008a8.434,8.434,0,0,1-6.4,4.158A22.809,22.809,0,0,1,776.705,543.477Z" transform="translate(-766.368 -526.402)" fill="#003d7c"/>
      </g>
      <g id="Group_4" data-name="Group 4" transform="translate(66.354 0.001)">
        <path id="Path_4" data-name="Path 4" d="M975.508,543.477a22.806,22.806,0,0,1-2.807-.17,8.414,8.414,0,0,1,0-16.735,23.285,23.285,0,0,1,5.614,0,8.432,8.432,0,0,1,6.4,4.158l-3.465,2.007a4.417,4.417,0,0,0-3.359-2.183l-.046-.005a19.312,19.312,0,0,0-4.662,0l-.046.005a4.409,4.409,0,0,0,0,8.771l.047.005a19.31,19.31,0,0,0,4.661,0l.047-.005a4.416,4.416,0,0,0,3.359-2.184l3.465,2.008a8.433,8.433,0,0,1-6.395,4.158A22.809,22.809,0,0,1,975.508,543.477Z" transform="translate(-965.171 -526.402)" fill="#003d7c"/>
      </g>
      <g id="Group_5" data-name="Group 5" transform="translate(111.231 0.001)">
        <path id="Path_5" data-name="Path 5" d="M1109.964,543.477a22.8,22.8,0,0,1-2.807-.17,8.414,8.414,0,0,1,0-16.735,23.286,23.286,0,0,1,5.614,0,8.432,8.432,0,0,1,6.4,4.158l-3.465,2.007a4.417,4.417,0,0,0-3.359-2.183l-.047-.005a19.274,19.274,0,0,0-4.662,0l-.046.005a4.409,4.409,0,0,0,0,8.771l.047.005a19.311,19.311,0,0,0,4.661,0l.047-.005a4.416,4.416,0,0,0,3.359-2.184l3.465,2.008a8.433,8.433,0,0,1-6.4,4.158A22.816,22.816,0,0,1,1109.964,543.477Z" transform="translate(-1099.627 -526.402)" fill="#003d7c"/>
      </g>
      <path id="Path_6" data-name="Path 6" d="M1044.256,526.572a23.326,23.326,0,0,0-5.614,0,8.433,8.433,0,0,0-6.4,4.158l3.466,2.007a4.417,4.417,0,0,1,3.359-2.183l.047-.005a19.281,19.281,0,0,1,4.662,0l.047.005a4.385,4.385,0,0,1,3.477,2.383h-7.233v4.005h7.233a4.384,4.384,0,0,1-3.477,2.383l-.047.005a19.3,19.3,0,0,1-4.661,0l-.047-.005a4.417,4.417,0,0,1-3.359-2.184l-3.466,2.008a8.433,8.433,0,0,0,6.4,4.158,23.239,23.239,0,0,0,5.614,0,8.414,8.414,0,0,0,0-16.735Z" transform="translate(-943.505 -526.401)" fill="#003d7c"/>
      <path id="Path_7" data-name="Path 7" d="M917.02,544h4.827l-5.392-8.014,5.381-8.014h-4.824l-4.036,6.011H906.75V527.97h-4.005V544h4.005v-6.011h6.226Z" transform="translate(-857.227 -527.446)" fill="#003d7c"/>
      <path id="Path_8" data-name="Path 8" d="M847.5,542.952h4.123l-2.794-11.465c-.8-3.377-3.316-5.089-7.464-5.089-5.147,0-6.9,2.763-7.461,5.079l-2.8,11.474h4.122l.528-2.166h11.214Zm-10.766-6.171,1.061-4.356c.248-1.022.729-2.021,3.57-2.021s3.315.952,3.57,2.022L846,536.781Z" transform="translate(-809.503 -526.399)" fill="#003d7c"/>
    </g>
  </g>
</svg>
