<?xml version="1.0" encoding="UTF-8" standalone="no"?>
<svg  viewBox="0 0 16 8" version="1.1" xmlns="http://www.w3.org/2000/svg" xmlns:xlink="http://www.w3.org/1999/xlink">
    <!-- Generator: Sketch 46.2 (44496) - http://www.bohemiancoding.com/sketch -->
    <title>Page 1</title>
    <desc>Created with Sketch.</desc>
    <defs></defs>
    <g id="PC" stroke="none" stroke-width="1" fill="none" fill-rule="evenodd">
        <g id="page_menu_catalog_1024" transform="translate(-228.000000, -105.000000)" fill="#4A4A4A">
            <g id="Group-11" transform="translate(42.000000, 83.000000)">
                <g id="Page-1" transform="translate(194.140869, 26.034475) scale(1, -1) translate(-194.140869, -26.034475) translate(186.640869, 22.034475)">
                    <path d="M12.5059439,0.423998715 C12.9095154,-0.0676477379 13.6294511,-0.136650857 14.1164639,0.274112543 C14.604506,0.681383524 14.6708832,1.40304657 14.2689072,1.89441168 L9.27164708,6.63161034 L8.34779237,7.5073869 C7.94581637,7.99875202 7.22719313,8.06586826 6.73595989,7.65915996 C6.24951336,7.25160763 6.1809744,6.52701486 6.5885864,6.03962234 L12.5059439,0.423998715 Z" id="Combined-Shape-Copy"></path>
                    <path d="M6.39767045,0.423999109 C6.80124203,-0.0676473437 7.52117773,-0.136650463 8.00819047,0.274112937 C8.49623257,0.681383918 8.56260977,1.40304696 8.16063376,1.89441207 C8.16063376,1.89441207 4.82912704,5.05254451 3.16337368,6.63161073 C2.85542212,6.92353625 2.23951898,7.5073873 2.23951898,7.5073873 C1.83754297,7.99875241 1.11891973,8.06586865 0.627686498,7.65916035 C0.141239962,7.25160803 0.0727010006,6.52701525 0.480313008,6.03962273 L6.39767045,0.423999109 Z" id="Combined-Shape-Copy-2" transform="translate(4.318527, 3.965365) scale(-1, 1) translate(-4.318527, -3.965365) "></path>
                </g>
            </g>
        </g>
    </g>
</svg>