<svg xmlns="http://www.w3.org/2000/svg" width="220" height="60" viewBox="0 0 220 60"><defs><style>.a{fill:none;}.b{fill:#ec6608;}.c{fill:#fff;}</style></defs><rect class="a" width="220" height="60"/><path class="b" d="M8.572,6.8a3.779,3.779,0,0,0-3.5-1.852A3.587,3.587,0,0,0,1.2,8.573,3.568,3.568,0,0,0,5.068,12.2a3.779,3.779,0,0,0,3.5-1.852l-1.214-.7a2.577,2.577,0,0,1-2.316,1.164,2.155,2.155,0,0,1-2.29-2.24,2.123,2.123,0,0,1,2.29-2.24A2.577,2.577,0,0,1,7.358,7.5Zm1.352-1.69v1.4H12.74v5.52H14.3V6.507h2.816v-1.4Zm8.824,0v6.921h1.565V10.488h2.516a2.641,2.641,0,0,0,2.854-2.666,2.68,2.68,0,0,0-2.854-2.716Zm1.565,1.427h2.453a1.239,1.239,0,0,1,1.352,1.289,1.2,1.2,0,0,1-1.352,1.239H20.312Zm8.524,2.04a2.316,2.316,0,0,1,4.631,0,2.316,2.316,0,0,1-4.631,0Zm6.2,0a3.676,3.676,0,0,0-3.88-3.63,3.638,3.638,0,1,0,0,7.259A3.676,3.676,0,0,0,35.031,8.573Zm1.777-3.467v6.921h1.527l4.105-4.781v4.781h1.552V5.106H42.479L38.361,9.912V5.106ZM41.665,2.74a2.081,2.081,0,0,1-2.678,0l-.751.826a2.961,2.961,0,0,0,4.18,0ZM45.87,5.106v6.921h1.514V7.183h.075l2.253,4.844h1.314l2.341-4.844h.075v4.844h1.539V5.106h-2l-2.528,5.019h-.063L47.961,5.106ZM60.6,6.495h.538l1.252,3.117H59.313Zm-.976-1.389-3.016,6.921h1.677l.451-1.051h4.268l.451,1.051h1.652L62.167,5.106Zm5.732,0v1.4h2.816v5.52h1.565V6.507h2.816v-1.4Zm8.824,0v6.921h6.458V10.588H75.747V9.211H79.99V7.8H75.747V6.52h4.719V5.106Zm8.248,0v6.921h1.565V10.488h2.516a2.641,2.641,0,0,0,2.854-2.666,2.68,2.68,0,0,0-2.854-2.716Zm1.565,1.427h2.453A1.239,1.239,0,0,1,87.8,7.822a1.2,1.2,0,0,1-1.352,1.239H83.995Zm7.059-1.427v6.921h1.527l4.105-4.781v4.781h1.552V5.106H96.724L92.606,9.912V5.106Zm12.8,1.389h.538l1.252,3.117h-3.079Zm-.976-1.389-3.016,6.921h1.677l.451-1.051h4.268l.451,1.051h1.652l-2.941-6.921Zm8.924,0-.926,4.956a.615.615,0,0,1-.676.538h-.751v1.427h.826a1.954,1.954,0,0,0,2.128-1.765l.7-3.755h2.653v5.52h1.565V5.106Zm14.832,0v6.921H128.2V5.106Zm-7.435,0v6.921h3.955a2.68,2.68,0,0,0,2.854-2.716,2.613,2.613,0,0,0-2.854-2.628h-2.391V5.106Zm1.565,2.966h2.278c.926,0,1.4.388,1.4,1.239s-.476,1.289-1.4,1.289h-2.278Z" transform="translate(56.458 38.038)"/><g transform="translate(0 2.503)"><g transform="translate(8.246 8.892)"><rect class="b" width="22.973" height="5.007" transform="translate(0 19.895) rotate(-60.001)"/></g><path class="c" d="M656.617,541.032h-15.9a2.5,2.5,0,0,1-2.167-3.755l8.671-15.019a2.5,2.5,0,0,1,4.336,0L662.4,541.032h0l2.89,5.007h5.781l-15.175-26.284a7.51,7.51,0,0,0-13.007,0l-8.672,15.02a7.51,7.51,0,0,0,6.5,11.265h18.789Z" transform="translate(-633.198 -513.497)"/><path class="b" d="M698.58,510H692.8l18.788,32.542h5.781Z" transform="translate(-667.933 -510)"/></g><g transform="translate(56.323 9.345)"><g transform="translate(0 0.001)"><path class="c" d="M779.289,547.745a28.514,28.514,0,0,1-3.509-.213,10.518,10.518,0,0,1,0-20.919,29.11,29.11,0,0,1,7.018,0,10.541,10.541,0,0,1,7.994,5.2l-4.332,2.51a5.523,5.523,0,0,0-4.2-2.73l-.058-.007a24.141,24.141,0,0,0-5.827,0l-.058.007a5.511,5.511,0,0,0,0,10.963l.059.007a24.141,24.141,0,0,0,5.826,0l.059-.007a5.522,5.522,0,0,0,4.2-2.73l4.332,2.51a10.543,10.543,0,0,1-7.994,5.2A28.518,28.518,0,0,1,779.289,547.745Z" transform="translate(-766.368 -526.402)"/></g><g transform="translate(82.942 0.001)"><path class="c" d="M978.092,547.745a28.513,28.513,0,0,1-3.509-.213,10.518,10.518,0,0,1,0-20.919,29.1,29.1,0,0,1,7.017,0,10.54,10.54,0,0,1,7.994,5.2l-4.332,2.509a5.521,5.521,0,0,0-4.2-2.729l-.058-.007a24.14,24.14,0,0,0-5.827,0l-.058.007a5.511,5.511,0,0,0,0,10.963l.059.007a24.141,24.141,0,0,0,5.826,0l.059-.007a5.52,5.52,0,0,0,4.2-2.73l4.332,2.51a10.541,10.541,0,0,1-7.994,5.2A28.518,28.518,0,0,1,978.092,547.745Z" transform="translate(-965.171 -526.402)"/></g><g transform="translate(139.038 0.001)"><path class="c" d="M1112.548,547.745a28.5,28.5,0,0,1-3.509-.213,10.518,10.518,0,0,1,0-20.919,29.1,29.1,0,0,1,7.017,0,10.54,10.54,0,0,1,7.994,5.2l-4.332,2.509a5.522,5.522,0,0,0-4.2-2.729l-.058-.006a24.094,24.094,0,0,0-5.827,0l-.058.007a5.511,5.511,0,0,0,0,10.963l.058.007a24.143,24.143,0,0,0,5.826,0l.059-.007a5.521,5.521,0,0,0,4.2-2.73l4.332,2.51a10.542,10.542,0,0,1-7.994,5.2A28.526,28.526,0,0,1,1112.548,547.745Z" transform="translate(-1099.627 -526.402)"/></g><path class="c" d="M1047.259,526.614a29.149,29.149,0,0,0-7.017,0,10.541,10.541,0,0,0-7.994,5.2l4.332,2.509a5.522,5.522,0,0,1,4.2-2.729l.058-.007a24.1,24.1,0,0,1,5.827,0l.058.006a5.481,5.481,0,0,1,4.346,2.978h-9.042v5.007h9.042a5.481,5.481,0,0,1-4.346,2.978l-.059.007a24.137,24.137,0,0,1-5.826,0l-.059-.007a5.521,5.521,0,0,1-4.2-2.73l-4.332,2.51a10.542,10.542,0,0,0,7.994,5.2,29.04,29.04,0,0,0,7.018,0,10.518,10.518,0,0,0,0-20.919Z" transform="translate(-921.32 -526.401)"/><path class="c" d="M920.589,548h6.034l-6.74-10.017,6.726-10.017h-6.03l-5.045,7.514h-7.783V527.97h-5.007V548h5.007v-7.514h7.782Z" transform="translate(-845.847 -527.315)"/><path class="c" d="M851.6,547.091h5.153l-3.492-14.331c-1.006-4.221-4.145-6.361-9.33-6.361-6.433,0-8.623,3.453-9.327,6.349l-3.494,14.343h5.153l.66-2.708h14.017Zm-13.457-7.714,1.327-5.445c.31-1.278.911-2.526,4.462-2.526s4.144,1.19,4.462,2.527l1.326,5.444Z" transform="translate(-804.101 -526.399)"/></g></svg>