<svg xmlns="http://www.w3.org/2000/svg" width="14.41" height="19.605" viewBox="0 0 14.41 19.605">
  <path id="Rubl" d="M8.107-8.121v-2.2H9.693v-9.283h6.029a11.785,11.785,0,0,1,2.755.3,5.737,5.737,0,0,1,2.146.978,4.562,4.562,0,0,1,1.395,1.75,6.22,6.22,0,0,1,.5,2.632,5.659,5.659,0,0,1-.595,2.707,5.147,5.147,0,0,1-1.586,1.8,6.56,6.56,0,0,1-2.3,1,12.007,12.007,0,0,1-2.748.308h-2.42v2.5h5.66v2.2h-5.66V0H9.693V-3.418H8.107v-2.2H9.693v-2.5Zm4.758-9.215v7.014h2.119a5.119,5.119,0,0,0,3.2-.854,3.132,3.132,0,0,0,1.094-2.632,3.46,3.46,0,0,0-.943-2.632,4.17,4.17,0,0,0-2.953-.9Z" transform="translate(-8.107 19.605)" fill="#364364"/>
</svg>
