<svg xmlns="http://www.w3.org/2000/svg" width="57.872" height="32" viewBox="0 0 57.872 32"><defs><style>.a{fill:#fff;}</style></defs><path class="a" d="M42.44,32a4.829,4.829,0,0,1-4.725-3.879H17.264a4.818,4.818,0,0,1-9.45,0H4.822a.959.959,0,0,1-.682-.284,3.572,3.572,0,0,1-.282-4.93V17.455H.964a.97.97,0,0,1,0-1.939H3.858V9.7H1.929a.97.97,0,0,1,0-1.939H3.858V1.939H2.893A.97.97,0,0,1,2.893,0h31.83a.968.968,0,0,1,.964.969V6.788H42.44a.956.956,0,0,1,.753.365l7.7,9.682.012.015a.958.958,0,0,1,.159.3.248.248,0,0,1,.009.05.337.337,0,0,0,.006.039.946.946,0,0,1,.037.219v5.452a3.573,3.573,0,0,1-.282,4.93.97.97,0,0,1-.682.284H47.165A4.829,4.829,0,0,1,42.44,32Zm0-7.758a2.909,2.909,0,1,0,2.893,2.909A2.9,2.9,0,0,0,42.44,24.242Zm-29.9,0a2.909,2.909,0,1,0,2.893,2.909A2.9,2.9,0,0,0,12.539,24.242ZM42.44,22.3a4.829,4.829,0,0,1,4.726,3.879h2.553a1.677,1.677,0,0,0-.25-2.229.984.984,0,0,1-.277-.68V22.3h-.964a.97.97,0,0,1,0-1.939h.964V18.34l-9.733-.889a.964.964,0,0,1-.877-.966V11.636a.968.968,0,0,1,.964-.97h3.973L41.976,8.727H35.688V26.182h2.026A4.829,4.829,0,0,1,42.44,22.3Zm-29.9,0a4.829,4.829,0,0,1,4.725,3.879h16.5V1.939H5.787V7.758H24.114a.97.97,0,0,1,0,1.939H5.787v5.818h8.681a.97.97,0,0,1,0,1.939H5.787v2.909h.965a.97.97,0,0,1,0,1.939H5.787v.97a.98.98,0,0,1-.282.686,1.675,1.675,0,0,0-.244,2.223H7.814A4.829,4.829,0,0,1,12.539,22.3Zm27.972-9.7V15.6l7.478.683-2.925-3.677Z" transform="translate(5.787 0)"/><rect class="a" width="49.253" height="1.846" rx="0.923" transform="translate(8.619 30.154)"/><path class="a" d="M2.894,0H.965a.97.97,0,0,0,0,1.939H2.894A.97.97,0,0,0,2.894,0Z" transform="translate(1.929)"/><path class="a" d="M2.894,0H.965a.97.97,0,0,0,0,1.939H2.894A.97.97,0,0,0,2.894,0Z" transform="translate(0.965 7.758)"/><path class="a" d="M2.863,0,.934.062A.97.97,0,0,0,.964,2H.995L2.924,1.94a.968.968,0,0,0,.934-1,.948.948,0,0,0-.3-.684A.938.938,0,0,0,2.863,0Z" transform="translate(0 15.385)"/></svg>